<svg width="442" height="329" viewBox="0 0 442 329" fill="none" xmlns="http://www.w3.org/2000/svg">
<path d="M220.766 328.995C315.327 328.995 391.984 324.519 391.984 318.999C391.984 313.478 315.327 309.002 220.766 309.002C126.206 309.002 49.5488 313.478 49.5488 318.999C49.5488 324.519 126.206 328.995 220.766 328.995Z" fill="#F5F5F5"/>
<path d="M308.41 95.7508L299.65 92.2186C299.65 92.2186 288.091 113.297 284.779 114.366C280.276 115.814 270.951 119.841 265.423 120.547C264.672 121.43 263.444 124.177 263.559 125.175C270.986 127.656 287.305 124.362 290.802 121.766C298.758 115.876 308.41 95.7508 308.41 95.7508Z" fill="#E58A7B"/>
<path d="M311.104 90.9558C312.738 96.9871 303.89 109.12 303.89 109.12L292.295 102.621C292.295 102.621 294.467 97.6317 297.116 92.5541C301.364 84.3504 309.241 84.0767 311.104 90.9558Z" fill="#4CAF4F"/>
<path opacity="0.2" d="M311.104 90.9558C312.738 96.9871 303.89 109.12 303.89 109.12L292.295 102.621C292.295 102.621 294.467 97.6317 297.116 92.5541C301.364 84.3504 309.241 84.0767 311.104 90.9558Z" fill="black"/>
<path opacity="0.2" d="M296.896 105.217L301.461 107.778L302.265 93.7639C299.607 95.8038 297.734 101.95 296.896 105.217Z" fill="black"/>
<path d="M303.474 86.4168C303.474 86.4168 294.45 106.498 299.713 143.887H335.274C335.839 138.429 333.967 111.796 340.74 86.0812C336.839 85.3189 332.892 84.8144 328.924 84.5712C323.892 84.2796 318.847 84.2796 313.815 84.5712C310.327 84.9254 306.87 85.5424 303.474 86.4168Z" fill="#4CAF4F"/>
<path opacity="0.2" d="M303.474 86.4168C303.474 86.4168 294.45 106.498 299.713 143.887H335.274C335.839 138.429 333.967 111.796 340.74 86.0812C336.839 85.3189 332.892 84.8144 328.924 84.5712C323.892 84.2796 318.847 84.2796 313.815 84.5712C310.327 84.9254 306.87 85.5424 303.474 86.4168Z" fill="black"/>
<g style="mix-blend-mode:multiply">
<path d="M295.227 319.793C295.174 320.747 308.658 321.515 325.339 321.515C342.02 321.515 355.602 320.747 355.655 319.793C355.708 318.84 342.232 318.08 325.542 318.08C308.852 318.08 295.289 318.849 295.227 319.793Z" fill="#E8ECF1"/>
</g>
<path d="M318.963 294.734L312.656 297.176L318.089 311.211L324.396 308.77L318.963 294.734Z" fill="#E58A7B"/>
<path d="M347.089 313.003H340.439L338.002 297.611H344.651L347.089 313.003Z" fill="#E58A7B"/>
<path d="M339.98 312.234H347.451C347.58 312.235 347.706 312.281 347.804 312.365C347.903 312.449 347.968 312.566 347.989 312.694L348.952 318.601C348.972 318.75 348.96 318.9 348.917 319.044C348.874 319.187 348.8 319.319 348.702 319.431C348.603 319.544 348.481 319.633 348.344 319.694C348.208 319.755 348.059 319.786 347.91 319.785C345.305 319.74 344.051 319.581 340.766 319.581C338.744 319.581 334.584 319.793 331.776 319.793C328.968 319.793 328.783 317.038 329.939 316.782C335.132 315.661 337.145 314.133 338.876 312.649C339.181 312.381 339.574 312.234 339.98 312.234Z" fill="#263238"/>
<path d="M317.904 309.956L324.968 307.89C325.094 307.854 325.229 307.863 325.349 307.914C325.47 307.966 325.569 308.057 325.631 308.172L328.28 313.471C328.341 313.605 328.373 313.751 328.372 313.899C328.371 314.047 328.338 314.193 328.275 314.327C328.212 314.46 328.12 314.579 328.007 314.673C327.893 314.768 327.76 314.837 327.618 314.875C325.048 315.581 323.326 316.014 320.112 316.95C317.895 317.595 315.634 318.645 313.444 319.343C311.926 319.829 308.358 319.846 306.512 319.846C303.784 319.846 303.174 316.968 304.349 316.835C307.307 316.508 307.704 316.659 309.338 315.837C312.011 314.669 314.434 312.996 316.473 310.91C316.858 310.471 317.351 310.142 317.904 309.956Z" fill="#263238"/>
<path d="M266.536 120.512L259.224 117.448L256.213 125.554C259.21 126.011 262.259 126.011 265.255 125.554L266.536 120.512Z" fill="#E58A7B"/>
<path d="M253.784 117.236L253.59 122.623L256.213 125.537L259.224 117.43L253.784 117.236Z" fill="#E58A7B"/>
<path d="M319.829 295.926L313.502 298.369L316.304 305.627L322.631 303.184L319.829 295.926Z" fill="#CF6F64"/>
<path d="M344.651 297.611H338.002L339.265 305.55H345.914L344.651 297.611Z" fill="#CF6F64"/>
<path opacity="0.2" d="M298.582 133.776C298.714 135.374 298.865 137.008 299.059 138.685L325.498 130.102C329.627 128.878 333.215 126.284 335.671 122.746C335.777 120.388 335.909 117.907 336.112 115.32C336.201 114.066 336.307 112.776 336.421 111.469C336.536 110.162 336.695 108.714 336.863 107.319L298.582 133.776Z" fill="black"/>
<path d="M307.218 104.811L306.335 104.705C306.856 100.29 310.15 96.8105 313.62 96.8988V97.7819C310.583 97.7201 307.686 100.855 307.218 104.811Z" fill="white"/>
<path d="M311.926 112.962H311.775V112.079C314.813 112.193 317.665 109.023 318.133 105.076L319.017 105.182C318.549 109.5 315.361 112.962 311.926 112.962Z" fill="white"/>
<path d="M328.429 67.5545C327.184 72.4202 325.718 81.3304 328.924 84.5712C328.924 84.5712 326.681 89.5075 317.647 89.5075C309.391 89.5075 313.815 84.5712 313.815 84.5712C319.307 83.2819 319.405 79.2728 318.68 75.4756L328.429 67.5545Z" fill="#E58A7B"/>
<path d="M324.456 70.7866L318.689 75.4756C318.868 76.3482 318.972 77.2345 318.999 78.1248C320.685 79.8027 324.067 75.5551 324.412 73.3828C324.587 72.5275 324.602 71.6473 324.456 70.7866Z" fill="#CF6F64"/>
<path d="M308.773 67.4927C309.174 68.1882 309.715 68.7934 310.36 69.2705C311.006 69.7476 311.743 70.0863 312.526 70.2655C314.645 70.7336 315.705 68.782 315.122 66.8216C314.601 65.0555 312.862 62.68 310.707 63.0862C310.245 63.1813 309.813 63.3856 309.447 63.682C309.081 63.9783 308.791 64.3582 308.601 64.7897C308.412 65.2212 308.329 65.6918 308.358 66.1621C308.388 66.6324 308.531 67.0887 308.773 67.4927Z" fill="#CF6F64"/>
<path d="M312.278 51.9243C308.975 53.4343 307.81 66.5567 311.96 68.4994C316.111 70.4422 318.53 49.0543 312.278 51.9243Z" fill="#263238"/>
<path d="M329.436 60.2339C328.641 66.8216 328.553 70.6983 325.021 74.0716C323.926 75.191 322.543 75.9862 321.025 76.3693C319.507 76.7524 317.913 76.7086 316.418 76.2426C314.924 75.7767 313.587 74.9068 312.555 73.7289C311.524 72.551 310.838 71.111 310.574 69.5679C309.505 63.6514 310.98 53.8759 317.585 51.2531C318.973 50.641 320.499 50.4112 322.006 50.5876C323.512 50.7639 324.944 51.34 326.153 52.2562C327.362 53.1723 328.304 54.3952 328.881 55.7979C329.459 57.2007 329.65 58.7323 329.436 60.2339Z" fill="#E58A7B"/>
<path d="M318.583 55.3329C323.476 54.0878 327.07 53.24 325.78 57.311C324.076 62.7507 322.027 68.0137 324.774 68.2522C326.452 68.4023 333.869 65.2586 332.924 62.0707C332.103 59.2979 335.574 58.5384 336.192 57.1344C338.479 52.0479 331.935 52.719 333.101 49.6283C334.267 46.5376 327.803 41.5571 324.27 44.0385C318.522 48.0476 308.658 47.9858 313.841 41.3893C317.559 36.6826 310.927 37.6451 310.927 37.6451C310.927 37.6451 314.936 40.0206 308.19 43.6941C301.055 47.6149 307.598 58.1499 318.583 55.3329Z" fill="#263238"/>
<path d="M332.033 67.4927C331.067 68.8902 329.616 69.8785 327.962 70.2655C325.78 70.7336 324.942 68.782 325.763 66.8216C326.496 65.0555 328.509 62.68 330.593 63.0862C332.677 63.4924 333.154 65.7619 332.033 67.4927Z" fill="#E58A7B"/>
<path d="M299.712 143.887C299.712 143.887 293.743 197.312 293.275 217.587C292.798 238.675 313.506 304.472 313.506 304.472L324.103 300.057C324.103 300.057 311.74 239.938 313.506 219.23C315.378 196.65 323.114 143.922 323.114 143.922L299.712 143.887Z" fill="#4CAF4F"/>
<path opacity="0.2" d="M314.548 158.554C309.788 168.427 312.994 187.952 315.572 199.52C316.553 191.352 317.718 182.486 318.822 174.282C318.716 161.672 317.736 151.931 314.548 158.554Z" fill="black"/>
<path d="M323.635 296.56C323.688 296.56 324.889 299.933 324.889 299.933L312.667 305.073L310.742 301.487L323.635 296.56Z" fill="#4CAF4F"/>
<path d="M312.331 143.887C312.331 143.887 316.897 194.698 319.917 213.728C323.237 234.578 336.253 304.013 336.253 304.013H348.431C348.431 304.013 341.137 236.264 339.759 215.618C338.258 193.224 335.273 143.887 335.273 143.887H312.331Z" fill="#4CAF4F"/>
<path d="M348.616 300.843C348.669 300.843 349.023 304.243 349.023 304.243H335.635L334.682 300.339L348.616 300.843Z" fill="#4CAF4F"/>
<path opacity="0.2" d="M343.954 296.816C343.926 296.816 343.899 296.807 343.878 296.789C343.857 296.771 343.843 296.746 343.839 296.719C343.768 296.101 337.189 234.904 335.953 216.36C334.611 196.244 331.909 151.622 331.882 151.172C331.881 151.157 331.883 151.143 331.888 151.129C331.892 151.115 331.9 151.102 331.91 151.091C331.92 151.081 331.932 151.072 331.945 151.066C331.959 151.06 331.974 151.057 331.988 151.057C332.017 151.057 332.045 151.068 332.066 151.088C332.088 151.107 332.101 151.134 332.103 151.163C332.103 151.614 334.832 196.2 336.174 216.351C337.41 234.895 343.989 296.048 344.051 296.71C344.053 296.725 344.053 296.74 344.049 296.754C344.046 296.768 344.039 296.782 344.03 296.793C344.021 296.805 344.009 296.815 343.996 296.822C343.983 296.829 343.969 296.833 343.954 296.834V296.816Z" fill="black"/>
<path d="M319.334 62.0707C319.334 62.6094 318.999 63.0421 318.646 63.0421C318.292 63.0421 318.036 62.6094 318.072 62.0707C318.107 61.532 318.407 61.0993 318.76 61.0993C319.114 61.0993 319.37 61.5409 319.334 62.0707Z" fill="#263238"/>
<path d="M313.276 62.0707C313.276 62.6094 312.932 63.0421 312.588 63.0421C312.243 63.0421 311.978 62.6094 312.005 62.0707C312.031 61.532 312.349 61.0993 312.702 61.0993C313.056 61.0993 313.312 61.5409 313.276 62.0707Z" fill="#263238"/>
<path d="M315.183 62.3445C314.446 63.9893 313.496 65.5302 312.357 66.9276C313.24 67.8106 314.892 67.4044 314.892 67.4044L315.183 62.3445Z" fill="#DF5753"/>
<path d="M315.343 69.6562C315.322 69.6563 315.302 69.6521 315.283 69.644C315.264 69.6359 315.247 69.6241 315.233 69.6092C315.219 69.5943 315.208 69.5767 315.201 69.5574C315.194 69.5382 315.191 69.5177 315.193 69.4973C315.195 69.4543 315.214 69.4139 315.245 69.3843C315.276 69.3547 315.317 69.3383 315.36 69.3383C316.036 69.343 316.704 69.1963 317.315 68.909C317.926 68.6217 318.465 68.2012 318.893 67.6782C318.923 67.6515 318.962 67.6367 319.003 67.6367C319.044 67.6367 319.083 67.6515 319.113 67.6782C319.142 67.7078 319.158 67.7474 319.158 67.7886C319.158 67.8297 319.142 67.8693 319.113 67.8989C318.656 68.4548 318.08 68.9011 317.427 69.2052C316.775 69.5093 316.063 69.6634 315.343 69.6562Z" fill="#263238"/>
<path d="M320.411 60.4459C320.369 60.4676 320.322 60.4789 320.274 60.4789C320.227 60.4789 320.18 60.4676 320.137 60.4459C319.807 60.2323 319.431 60.0994 319.04 60.058C318.649 60.0166 318.253 60.0678 317.886 60.2074C317.85 60.2254 317.811 60.2359 317.771 60.2385C317.731 60.2411 317.69 60.2356 317.653 60.2225C317.615 60.2093 317.58 60.1887 317.55 60.1618C317.52 60.135 317.496 60.1024 317.479 60.0661C317.446 59.9875 317.446 59.8993 317.477 59.8201C317.508 59.7409 317.569 59.6771 317.647 59.6423C318.109 59.4537 318.609 59.3793 319.106 59.4255C319.602 59.4716 320.08 59.6368 320.499 59.9072C320.533 59.9302 320.562 59.9597 320.585 59.994C320.607 60.0283 320.622 60.0667 320.63 60.1069C320.637 60.1472 320.636 60.1885 320.628 60.2285C320.619 60.2685 320.602 60.3063 320.579 60.3399C320.534 60.3905 320.476 60.4273 320.411 60.4459Z" fill="#263238"/>
<path d="M310.936 58.6797C310.889 58.6683 310.846 58.6438 310.812 58.6091C310.783 58.5803 310.76 58.546 310.744 58.508C310.728 58.4701 310.72 58.4294 310.72 58.3883C310.72 58.3472 310.728 58.3065 310.744 58.2686C310.76 58.2307 310.783 58.1963 310.812 58.1676C311.151 57.7879 311.572 57.4916 312.044 57.3017C312.516 57.1118 313.025 57.0333 313.532 57.0725C313.573 57.0788 313.612 57.0934 313.647 57.1153C313.681 57.1372 313.711 57.166 313.734 57.2C313.758 57.2339 313.774 57.2722 313.781 57.3126C313.789 57.353 313.789 57.3945 313.78 57.4346C313.761 57.5164 313.713 57.5884 313.644 57.6372C313.576 57.686 313.492 57.7081 313.409 57.6995C313.007 57.6742 312.606 57.7406 312.234 57.8936C311.862 58.0466 311.53 58.2822 311.263 58.5826C311.223 58.6273 311.171 58.66 311.113 58.6771C311.056 58.6943 310.994 58.6952 310.936 58.6797Z" fill="#263238"/>
<path d="M344.157 94.7706L334.973 92.3245C334.973 92.3245 325.966 114.498 322.778 115.938C318.451 117.916 307.492 124.768 302.83 128.009C302.574 129.113 302.777 132.036 303.359 132.84C311.307 131.391 326.522 125.537 329.701 122.561C336.951 115.77 344.157 94.7706 344.157 94.7706Z" fill="#E58A7B"/>
<path d="M337.746 313.4C337.298 313.435 336.852 313.314 336.484 313.056C336.37 312.953 336.285 312.822 336.237 312.677C336.189 312.531 336.18 312.376 336.21 312.226C336.215 312.132 336.246 312.041 336.299 311.963C336.352 311.886 336.425 311.824 336.51 311.784C337.252 311.404 339.327 312.72 339.565 312.87C339.592 312.886 339.612 312.911 339.623 312.939C339.634 312.968 339.636 313 339.627 313.029C339.62 313.06 339.604 313.088 339.583 313.112C339.561 313.135 339.534 313.152 339.504 313.162C338.928 313.303 338.339 313.383 337.746 313.4ZM336.863 312.022C336.796 312.008 336.727 312.008 336.66 312.022C336.626 312.04 336.598 312.066 336.579 312.099C336.561 312.132 336.552 312.17 336.554 312.208C336.531 312.311 336.535 312.418 336.566 312.519C336.597 312.619 336.654 312.71 336.731 312.782C337.075 313.091 337.941 313.126 339.08 312.906C338.401 312.459 337.638 312.158 336.837 312.022H336.863Z" fill="#4CAF4F"/>
<path d="M339.459 313.162C339.436 313.169 339.411 313.169 339.388 313.162C338.726 312.791 337.481 311.334 337.666 310.592C337.694 310.474 337.76 310.369 337.855 310.294C337.949 310.219 338.066 310.178 338.187 310.177C338.306 310.161 338.426 310.171 338.54 310.206C338.655 310.241 338.76 310.3 338.849 310.38C339.582 311.007 339.626 312.932 339.626 313.029C339.631 313.058 339.625 313.088 339.611 313.113C339.596 313.139 339.574 313.159 339.547 313.17C339.517 313.176 339.487 313.173 339.459 313.162ZM338.275 310.468H338.214C338.01 310.468 337.984 310.583 337.975 310.627C337.869 311.06 338.655 312.164 339.309 312.685C339.306 311.939 339.074 311.212 338.646 310.601C338.544 310.511 338.411 310.464 338.275 310.468Z" fill="#4CAF4F"/>
<path d="M314.3 312.296C313.76 312.485 313.172 312.485 312.631 312.296C312.508 312.23 312.405 312.133 312.329 312.016C312.253 311.899 312.208 311.764 312.199 311.625C312.187 311.538 312.199 311.449 312.231 311.367C312.263 311.285 312.316 311.213 312.384 311.157C313.09 310.521 315.978 311.157 316.305 311.281C316.336 311.289 316.363 311.307 316.383 311.333C316.402 311.358 316.412 311.39 316.411 311.422C316.412 311.455 316.404 311.488 316.386 311.516C316.369 311.544 316.344 311.567 316.314 311.581C315.663 311.875 314.99 312.114 314.3 312.296ZM312.861 311.245C312.76 311.266 312.666 311.311 312.587 311.378C312.559 311.399 312.537 311.427 312.525 311.46C312.512 311.493 312.509 311.529 312.516 311.563C312.522 311.656 312.551 311.746 312.6 311.824C312.65 311.903 312.718 311.968 312.799 312.014C313.267 312.261 314.353 312.067 315.757 311.475C314.812 311.236 313.832 311.159 312.861 311.245Z" fill="#4CAF4F"/>
<path d="M316.287 311.581H316.217C315.334 311.422 313.568 310.406 313.515 309.647C313.515 309.47 313.594 309.223 314.018 309.082C314.161 309.031 314.313 309.009 314.465 309.018C314.617 309.027 314.765 309.067 314.901 309.135C315.855 309.603 316.358 311.298 316.385 311.378C316.391 311.405 316.39 311.432 316.382 311.459C316.375 311.485 316.36 311.509 316.34 311.528C316.327 311.55 316.309 311.568 316.287 311.581ZM314.195 309.347H314.106C313.833 309.444 313.833 309.559 313.833 309.594C313.833 310.053 315.113 310.892 316.005 311.175C315.799 310.465 315.365 309.844 314.769 309.409C314.591 309.318 314.387 309.296 314.195 309.347Z" fill="#4CAF4F"/>
<path d="M303.581 127.488L294.37 131.727L293.302 134.376L296.702 136.663C296.702 136.663 303.06 135.974 304.87 131.886L303.581 127.488Z" fill="#E58A7B"/>
<path d="M303.969 132.99C303.763 131.22 303.179 129.515 302.256 127.992L303.713 126.897C304.809 128.652 305.508 130.626 305.762 132.681L303.969 132.99Z" fill="#263238"/>
<path d="M305.541 128.742C305.735 129.048 305.831 129.407 305.815 129.77C305.798 130.132 305.67 130.481 305.449 130.768C305.227 131.056 304.922 131.268 304.576 131.376C304.23 131.484 303.858 131.483 303.513 131.372C303.167 131.262 302.864 131.047 302.644 130.758C302.425 130.469 302.299 130.12 302.285 129.757C302.272 129.394 302.37 129.036 302.567 128.731C302.764 128.427 303.05 128.19 303.386 128.053C303.763 127.861 304.202 127.826 304.605 127.954C305.009 128.083 305.345 128.367 305.541 128.742Z" fill="#263238"/>
<path d="M288.145 135.153L289.372 136.39L297.637 132.857L294.37 131.727L288.145 135.153Z" fill="#E58A7B"/>
<path opacity="0.2" d="M323.635 296.56C323.688 296.56 324.889 299.933 324.889 299.933L312.667 305.073L310.742 301.487L323.635 296.56Z" fill="black"/>
<path opacity="0.2" d="M348.616 300.843C348.669 300.843 349.023 304.243 349.023 304.243H335.635L334.682 300.339L348.616 300.843Z" fill="black"/>
<path d="M346.55 92.2274C348.979 100.06 339.486 110.772 339.486 110.772L326.372 105.42C327.926 100.893 329.719 96.451 331.741 92.1126C335.768 83.4321 344.095 84.324 346.55 92.2274Z" fill="#4CAF4F"/>
<path opacity="0.2" d="M346.55 92.2274C348.979 100.06 339.486 110.772 339.486 110.772L326.372 105.42C327.926 100.893 329.719 96.451 331.741 92.1126C335.768 83.4321 344.095 84.324 346.55 92.2274Z" fill="black"/>
<path d="M216.244 13.7493H210.602V14.6589H216.244V13.7493Z" fill="#4CAF4F"/>
<path d="M289.29 49.7488L288.607 64.9045L289.516 64.9455L290.199 49.7898L289.29 49.7488Z" fill="#4CAF4F"/>
<path d="M287.535 17.8291H183.333L173.637 234.816H277.838L287.535 17.8291Z" fill="#4CAF4F"/>
<path opacity="0.56" d="M284.426 20.8138H180.224L170.528 237.801H274.73L284.426 20.8138Z" fill="#FAFAFA"/>
<path opacity="0.07" d="M281.318 23.7898H177.116L167.411 240.777H271.613L281.318 23.7898Z" fill="#4CAF4F"/>
<path d="M269.459 118.428H180.516L179.774 135.03H268.717L269.459 118.428Z" fill="white"/>
<path d="M229.429 106.312H181.054L180.728 113.739H229.102L229.429 106.312Z" fill="#4CAF4F"/>
<path d="M267.454 163.235H178.511L177.77 179.836H266.712L267.454 163.235Z" fill="white"/>
<path opacity="0.47" d="M251.143 202.257H191.333L190.441 222.153H250.251L251.143 202.257Z" fill="#4CAF4F"/>
<path d="M247.143 225.244H187.333C187.307 225.25 187.28 225.25 187.254 225.244C187.245 225.218 187.245 225.19 187.254 225.164L188.137 205.26C188.137 205.246 188.139 205.233 188.145 205.22C188.15 205.208 188.158 205.197 188.168 205.188C188.178 205.179 188.19 205.172 188.203 205.167C188.216 205.163 188.229 205.161 188.243 205.163H248.053C248.064 205.157 248.076 205.154 248.088 205.154C248.1 205.154 248.112 205.157 248.123 205.163C248.13 205.173 248.133 205.186 248.133 205.198C248.133 205.21 248.13 205.223 248.123 205.233L247.258 225.182C247.247 225.202 247.231 225.219 247.21 225.231C247.19 225.242 247.166 225.246 247.143 225.244ZM187.439 225.032H247.037L247.92 205.339H188.322L187.439 225.032Z" fill="white"/>
<path d="M218.983 151.119H179.05L178.724 158.554H218.647L218.983 151.119Z" fill="#4CAF4F"/>
<path d="M250.004 64.7994C249.776 69.631 248.058 74.2734 245.085 78.0895C242.885 80.9719 240.054 83.312 236.809 84.93C233.563 86.548 229.991 87.401 226.364 87.4235C223.434 87.4459 220.53 86.868 217.832 85.7256C215.133 84.5832 212.697 82.9004 210.674 80.7809C208.65 78.6614 207.082 76.15 206.066 73.4015C205.049 70.653 204.607 67.7255 204.765 64.7994C205.075 58.7274 207.694 53.0035 212.085 48.7981C216.475 44.5927 222.307 42.2236 228.387 42.1752C231.319 42.1479 234.226 42.7222 236.928 43.8626C239.63 45.003 242.069 46.6854 244.095 48.8057C246.121 50.926 247.691 53.4393 248.707 56.1902C249.723 58.941 250.165 61.8711 250.004 64.7994Z" fill="white"/>
<path d="M252.132 46.9084C252.075 48.1931 251.618 49.4279 250.825 50.4407C250.239 51.2063 249.485 51.8278 248.622 52.2579C247.759 52.6879 246.809 52.9151 245.845 52.9221C244.911 52.9278 243.989 52.7046 243.161 52.272C242.333 51.8395 241.623 51.2107 241.094 50.4407C240.393 49.4001 240.047 48.1615 240.105 46.9084C240.19 45.2963 240.887 43.7775 242.054 42.6617C243.221 41.5458 244.769 40.9171 246.384 40.9036C247.162 40.8965 247.934 41.0489 248.652 41.3515C249.37 41.6541 250.018 42.1004 250.556 42.663C251.095 43.2256 251.513 43.8925 251.784 44.6226C252.055 45.3528 252.173 46.1307 252.132 46.9084Z" fill="#4CAF4F"/>
<path d="M190.097 126.729C190.055 127.44 189.744 128.109 189.228 128.601C188.711 129.093 188.028 129.37 187.315 129.378C186.971 129.382 186.63 129.316 186.312 129.182C185.995 129.049 185.708 128.853 185.47 128.604C185.231 128.356 185.046 128.061 184.926 127.739C184.806 127.416 184.754 127.072 184.772 126.729C184.81 126.016 185.12 125.344 185.637 124.852C186.154 124.359 186.84 124.083 187.554 124.08C187.898 124.077 188.238 124.144 188.555 124.278C188.872 124.411 189.158 124.608 189.396 124.856C189.634 125.104 189.819 125.398 189.94 125.72C190.06 126.042 190.114 126.385 190.097 126.729Z" fill="#263238"/>
<path d="M202.001 126.729C201.961 127.441 201.651 128.111 201.134 128.603C200.618 129.095 199.933 129.372 199.22 129.378C198.876 129.381 198.536 129.313 198.219 129.18C197.903 129.046 197.617 128.849 197.38 128.601C197.142 128.353 196.958 128.059 196.839 127.737C196.719 127.415 196.667 127.072 196.685 126.729C196.723 126.017 197.031 125.347 197.547 124.855C198.062 124.363 198.745 124.085 199.458 124.08C199.802 124.075 200.143 124.142 200.461 124.275C200.778 124.408 201.065 124.605 201.303 124.853C201.542 125.101 201.727 125.396 201.847 125.719C201.967 126.041 202.019 126.385 202.001 126.729Z" fill="#263238"/>
<path d="M213.914 126.729C213.873 127.441 213.563 128.111 213.047 128.603C212.53 129.095 211.846 129.372 211.132 129.378C210.788 129.381 210.448 129.313 210.131 129.18C209.814 129.046 209.528 128.85 209.29 128.602C209.051 128.353 208.867 128.059 208.746 127.737C208.626 127.415 208.572 127.072 208.589 126.729C208.629 126.016 208.939 125.346 209.456 124.854C209.973 124.362 210.657 124.085 211.371 124.08C211.715 124.075 212.056 124.142 212.374 124.275C212.691 124.408 212.978 124.605 213.216 124.853C213.455 125.101 213.639 125.396 213.759 125.719C213.879 126.041 213.932 126.385 213.914 126.729Z" fill="#263238"/>
<path d="M188.093 171.536C188.05 172.247 187.74 172.916 187.223 173.408C186.707 173.899 186.024 174.177 185.311 174.185C184.967 174.188 184.626 174.12 184.309 173.987C183.993 173.853 183.706 173.656 183.468 173.408C183.23 173.16 183.045 172.866 182.925 172.544C182.804 172.222 182.751 171.879 182.768 171.536C182.808 170.823 183.118 170.153 183.635 169.661C184.151 169.169 184.836 168.892 185.549 168.886C185.893 168.883 186.234 168.951 186.551 169.084C186.868 169.218 187.154 169.415 187.392 169.663C187.63 169.911 187.815 170.205 187.935 170.527C188.056 170.849 188.109 171.192 188.093 171.536Z" fill="#263238"/>
<path d="M199.996 171.536C199.956 172.246 199.647 172.915 199.133 173.407C198.618 173.899 197.935 174.177 197.223 174.185C196.879 174.189 196.538 174.122 196.221 173.989C195.903 173.856 195.616 173.659 195.378 173.411C195.14 173.163 194.955 172.868 194.835 172.546C194.715 172.223 194.662 171.879 194.68 171.536C194.721 170.823 195.031 170.153 195.547 169.661C196.064 169.169 196.748 168.892 197.462 168.886C197.805 168.883 198.146 168.951 198.462 169.084C198.779 169.218 199.064 169.415 199.302 169.663C199.539 169.911 199.723 170.206 199.843 170.528C199.962 170.85 200.014 171.193 199.996 171.536Z" fill="#263238"/>
<path d="M211.935 171.536C211.895 172.248 211.585 172.918 211.068 173.41C210.551 173.902 209.867 174.179 209.153 174.185C208.81 174.186 208.47 174.118 208.153 173.984C207.837 173.85 207.551 173.653 207.314 173.406C207.076 173.158 206.891 172.864 206.77 172.543C206.649 172.221 206.594 171.879 206.61 171.536C206.652 170.824 206.963 170.155 207.479 169.663C207.995 169.172 208.679 168.894 209.392 168.886C209.736 168.882 210.077 168.949 210.395 169.082C210.712 169.215 210.999 169.412 211.237 169.66C211.476 169.908 211.66 170.203 211.78 170.525C211.9 170.848 211.953 171.192 211.935 171.536Z" fill="#263238"/>
<path d="M223.822 171.536C223.779 172.247 223.469 172.916 222.952 173.408C222.436 173.899 221.753 174.177 221.04 174.185C220.697 174.186 220.356 174.118 220.04 173.984C219.724 173.85 219.438 173.653 219.2 173.405C218.962 173.158 218.777 172.864 218.656 172.543C218.536 172.221 218.481 171.879 218.497 171.536C218.539 170.824 218.85 170.155 219.366 169.663C219.882 169.172 220.566 168.894 221.278 168.886C221.622 168.883 221.963 168.951 222.28 169.084C222.597 169.218 222.883 169.415 223.121 169.663C223.359 169.911 223.544 170.205 223.665 170.527C223.785 170.849 223.838 171.192 223.822 171.536Z" fill="#263238"/>
<path d="M235.778 171.536C235.735 172.247 235.425 172.916 234.908 173.408C234.392 173.899 233.709 174.177 232.996 174.185C232.652 174.189 232.31 174.122 231.993 173.989C231.676 173.856 231.389 173.659 231.15 173.411C230.912 173.163 230.727 172.868 230.607 172.546C230.487 172.223 230.435 171.879 230.453 171.536C230.493 170.823 230.803 170.153 231.32 169.661C231.836 169.169 232.521 168.892 233.234 168.886C233.578 168.883 233.919 168.951 234.236 169.084C234.553 169.218 234.839 169.415 235.077 169.663C235.315 169.911 235.5 170.205 235.621 170.527C235.741 170.849 235.794 171.192 235.778 171.536Z" fill="#263238"/>
<path d="M233.971 63.621C237.667 60.0066 237.863 54.2131 234.409 50.6809C230.954 47.1486 225.158 47.2153 221.462 50.8297C217.766 54.4442 217.57 60.2377 221.024 63.7699C224.478 67.3021 230.274 67.2355 233.971 63.621Z" fill="#4CAF4F"/>
<path d="M245.085 78.0895C242.885 80.9719 240.054 83.312 236.809 84.93C233.563 86.548 229.991 87.401 226.364 87.4235C222.848 87.4533 219.379 86.6175 216.262 84.9897C213.145 83.3619 210.476 80.9922 208.491 78.0895C212.783 73.8155 219.574 71.025 227.097 71.025C234.621 71.025 241.173 73.8155 245.085 78.0895Z" fill="#4CAF4F"/>
<path opacity="0.1" d="M233.971 63.621C237.667 60.0066 237.863 54.2131 234.409 50.6809C230.954 47.1486 225.158 47.2153 221.462 50.8297C217.766 54.4442 217.57 60.2377 221.024 63.7699C224.478 67.3021 230.274 67.2355 233.971 63.621Z" fill="white"/>
<path opacity="0.1" d="M245.085 78.0895C242.885 80.9719 240.054 83.312 236.809 84.93C233.563 86.548 229.991 87.401 226.364 87.4235C222.848 87.4533 219.379 86.6175 216.262 84.9897C213.145 83.3619 210.476 80.9922 208.491 78.0895C212.783 73.8155 219.574 71.025 227.097 71.025C234.621 71.025 241.173 73.8155 245.085 78.0895Z" fill="white"/>
<path d="M115.16 139.03C114.322 140.867 113.439 142.889 112.67 144.849C111.902 146.81 111.116 148.832 110.436 150.845C109.048 154.813 107.99 158.889 107.275 163.032L107.08 164.33C107.062 164.552 107.083 164.777 107.142 164.992C107.351 165.724 107.679 166.416 108.114 167.041C109.248 168.657 110.563 170.139 112.034 171.456C113.586 172.899 115.213 174.258 116.909 175.527C118.604 176.834 120.388 178.105 122.146 179.306L120.494 182.406C116.298 180.578 112.315 178.295 108.617 175.598C106.644 174.159 104.863 172.473 103.319 170.582C102.403 169.456 101.689 168.18 101.208 166.811C100.928 165.956 100.785 165.062 100.784 164.162C100.784 163.95 100.784 163.641 100.784 163.491V163.058L100.872 162.175C101.379 157.574 102.346 153.036 103.76 148.629C104.449 146.456 105.182 144.293 106.021 142.182C106.86 140.072 107.725 138.005 108.794 135.86L115.16 139.03Z" fill="#E58A7B"/>
<path d="M120.9 178.759L127.144 175.598L125.528 182.45C125.528 182.45 121.245 183.651 119.258 181.567L120.9 178.759Z" fill="#E58A7B"/>
<path d="M132.857 176.719L131.197 182.388L125.527 182.45L127.143 175.598L132.857 176.719Z" fill="#E58A7B"/>
<path d="M141.67 105.968C142.004 107.192 142.469 108.376 143.056 109.5C142.885 109.695 142.664 109.839 142.416 109.919C142.169 109.998 141.905 110.009 141.652 109.95L141.67 105.968Z" fill="#DF5753"/>
<path d="M141.485 106.021C141.85 106.021 142.147 105.566 142.147 105.005C142.147 104.444 141.85 103.99 141.485 103.99C141.119 103.99 140.822 104.444 140.822 105.005C140.822 105.566 141.119 106.021 141.485 106.021Z" fill="#263238"/>
<path d="M141.29 104.025L142.632 103.645C142.632 103.645 141.979 104.687 141.29 104.025Z" fill="#263238"/>
<path d="M124.424 112.45C125.228 116.556 126.031 124.088 123.152 126.835C123.152 126.835 124.283 131.003 131.921 131.003C140.319 131.003 135.93 126.835 135.93 126.835C131.347 125.74 131.462 122.34 132.266 119.143L124.424 112.45Z" fill="#E58A7B"/>
<path d="M122.189 103.089C122.613 109.95 122.648 112.865 126.11 116.388C131.329 121.686 139.665 119.673 141.299 112.856C142.773 106.674 141.837 96.5014 135.117 93.7727C133.642 93.1651 132.036 92.9437 130.452 93.1297C128.867 93.3157 127.357 93.9028 126.062 94.8355C124.768 95.7682 123.733 97.0157 123.055 98.4599C122.378 99.9042 122.079 101.497 122.189 103.089Z" fill="#E58A7B"/>
<path d="M122.869 95.3711C119.425 96.625 114.833 95.689 116.635 106.312C118.542 117.563 115.61 121.263 115.61 121.263C115.61 121.263 128.671 124.044 142.005 121.095C142.005 121.095 137.934 113.977 139.073 108.732C140.53 102.109 139.382 99.6628 139.382 99.6628C139.382 99.6628 127.708 93.605 122.869 95.3711Z" fill="#263238"/>
<path d="M137.44 106.665C137.444 107.97 137.818 109.247 138.518 110.348C139.454 111.778 140.558 111.231 140.831 109.712C141.079 108.379 140.893 106.021 139.701 105.102C138.509 104.184 137.458 105.085 137.44 106.665Z" fill="#E58A7B"/>
<path d="M119.876 96.5279C118.887 93.7462 123.603 89.4634 133.581 91.2295C143.56 92.9956 143.992 101.305 143.992 101.305L141.979 98.9033L142.067 101.429L131.815 103.398L119.876 96.5279Z" fill="#263238"/>
<path d="M120.723 127.303C120.665 126.9 120.765 126.489 121.005 126.159C121.244 125.829 121.602 125.606 122.004 125.537C125.112 125.024 132.177 123.982 135.727 124.477C138.376 124.848 139.065 126.384 139.18 127.647C139.197 127.868 139.168 128.091 139.093 128.299C139.018 128.508 138.899 128.698 138.744 128.857C138.589 129.016 138.402 129.14 138.196 129.221C137.989 129.302 137.767 129.337 137.546 129.325L122.198 128.636C121.836 128.618 121.492 128.475 121.223 128.232C120.954 127.989 120.778 127.661 120.723 127.303Z" fill="#4CAF4F"/>
<path opacity="0.6" d="M120.723 127.303C120.665 126.9 120.765 126.489 121.005 126.159C121.244 125.829 121.602 125.606 122.004 125.537C125.112 125.024 132.177 123.982 135.727 124.477C138.376 124.848 139.065 126.384 139.18 127.647C139.197 127.868 139.168 128.091 139.093 128.299C139.018 128.508 138.899 128.698 138.744 128.857C138.589 129.016 138.402 129.14 138.196 129.221C137.989 129.302 137.767 129.337 137.546 129.325L122.198 128.636C121.836 128.618 121.492 128.475 121.223 128.232C120.954 127.989 120.778 127.661 120.723 127.303Z" fill="black"/>
<path d="M129.599 281.574L135.294 285.53L144.823 272.611L139.127 268.664L129.599 281.574Z" fill="#E58A7B"/>
<path d="M116.317 281.318L122.331 284.745L130.764 271.084L124.751 267.657L116.317 281.318Z" fill="#E58A7B"/>
<path d="M144.814 272.611L139.904 279.27L134.208 275.322L139.118 268.664L144.814 272.611Z" fill="#CF6F64"/>
<path d="M124.741 267.657L130.764 271.092L126.419 278.13L120.396 274.695L124.741 267.657Z" fill="#CF6F64"/>
<path d="M134.402 170.432C134.402 170.432 156.638 198.451 152.461 225.252C149.096 246.896 129.58 276.205 129.58 276.205L120.405 271.649C126.873 258.69 132.391 245.279 136.919 231.522C138.315 227.251 138.722 222.719 138.11 218.267C137.499 213.815 135.883 209.561 133.386 205.825C122.119 189.373 104.069 199.167 116.211 170.432H134.402Z" fill="#4CAF4F"/>
<path opacity="0.6" d="M134.402 170.432C134.402 170.432 156.638 198.451 152.461 225.252C149.096 246.896 129.58 276.205 129.58 276.205L120.405 271.649C126.873 258.69 132.391 245.279 136.919 231.522C138.315 227.251 138.722 222.719 138.11 218.267C137.499 213.815 135.883 209.561 133.386 205.825C122.119 189.373 104.069 199.167 116.211 170.432H134.402Z" fill="black"/>
<path opacity="0.4" d="M145.308 188.429L142.076 185.214C142.076 185.47 148.337 224.122 150.094 234.984C151.131 231.811 151.926 228.564 152.47 225.27C154.536 212.121 150.218 198.69 145.308 188.429Z" fill="black"/>
<path d="M144.329 170.432C144.329 170.432 171.103 205.648 171.862 226.762C172.489 244.424 142.721 278.643 142.721 278.643L134.067 273.044C134.067 273.044 151.49 248.742 155.879 228.891C154.184 209.216 118.331 170.432 118.331 170.432H144.329Z" fill="#4CAF4F"/>
<path opacity="0.6" d="M144.329 170.432C144.329 170.432 171.103 205.648 171.862 226.762C172.489 244.424 142.721 278.643 142.721 278.643L134.067 273.044C134.067 273.044 151.49 248.742 155.879 228.891C154.184 209.216 118.331 170.432 118.331 170.432H144.329Z" fill="black"/>
<path d="M111.204 128.407C108.343 129.087 105.597 139.489 105.597 139.489L116.785 146.96C116.785 146.96 120.512 138.73 119.205 135.127C117.854 131.374 114.798 127.55 111.204 128.407Z" fill="#4CAF4F"/>
<path opacity="0.2" d="M113.394 135.109L112.617 144.178L116.776 146.969C117.925 144.383 118.775 141.675 119.311 138.897L113.394 135.109Z" fill="black"/>
<path d="M147.639 128.61C147.639 128.61 150.942 129.766 144.328 170.423H116.193C116.67 158.943 116.679 151.878 111.204 128.407C115.144 127.595 119.137 127.069 123.152 126.835C127.406 126.53 131.676 126.53 135.93 126.835C141.423 127.338 147.639 128.61 147.639 128.61Z" fill="#4CAF4F"/>
<path d="M150.5 135.109C151.136 136.875 151.807 138.774 152.514 140.602C153.22 142.43 153.891 144.311 154.607 146.165L156.77 151.711L157.318 153.097L157.6 153.786L157.733 154.13C157.733 154.192 157.733 154.192 157.733 154.183C157.571 153.956 157.36 153.768 157.114 153.636C156.765 153.43 156.371 153.312 155.966 153.291C155.63 153.281 155.296 153.344 154.986 153.477C154.58 153.662 154.58 153.742 154.589 153.733C154.662 153.674 154.728 153.606 154.783 153.53C155.272 152.888 155.695 152.199 156.046 151.472C156.461 150.66 156.858 149.794 157.256 148.92C158.033 147.154 158.748 145.326 159.463 143.481C160.179 141.635 160.859 139.772 161.521 137.891L163.534 132.257L166.934 133.14C166.263 137.167 165.398 141.087 164.356 145.079C163.852 147.066 163.261 149.035 162.589 151.022C162.254 152.02 161.883 153.009 161.459 154.024C161.017 155.126 160.473 156.185 159.834 157.186C159.599 157.523 159.34 157.841 159.057 158.139C158.606 158.626 158.059 159.014 157.45 159.279C156.91 159.511 156.324 159.619 155.737 159.596C155.079 159.572 154.437 159.381 153.874 159.04C153.208 158.625 152.656 158.052 152.266 157.371C152.134 157.142 152.019 156.912 151.94 156.744L151.772 156.409L151.436 155.72L150.765 154.351C149.882 152.514 148.999 150.66 148.231 148.797C147.463 146.933 146.65 145.044 145.891 143.145C145.131 141.246 144.451 139.348 143.807 137.299L150.5 135.109Z" fill="#E58A7B"/>
<path d="M147.639 128.61C151.022 129.413 154.828 139.41 154.828 139.41L144.769 147.966C144.769 147.966 138.261 137.069 139.577 133.475C140.946 129.731 143.224 127.559 147.639 128.61Z" fill="#4CAF4F"/>
<path d="M165.133 129.095L168.666 126.146L171.121 129.97L169.31 133.157C169.31 133.157 166.432 135.807 163.888 134.456C163.485 133.548 163.388 132.534 163.613 131.567C163.837 130.6 164.371 129.732 165.133 129.095Z" fill="#E58A7B"/>
<path d="M175.041 126.155L174.776 127.117L169.186 128.053L168.639 126.146L175.041 126.155Z" fill="#E58A7B"/>
<path d="M143.41 279.093L133.325 272.576L135.135 269.432L146.465 276.4L143.41 279.093Z" fill="#4CAF4F"/>
<path d="M126.279 284.285C125.394 284.177 124.544 283.876 123.788 283.402C123.757 283.391 123.73 283.371 123.711 283.344C123.692 283.317 123.682 283.285 123.682 283.252C123.682 283.219 123.692 283.187 123.711 283.16C123.73 283.133 123.757 283.113 123.788 283.102C124.062 283.014 126.438 282.281 127.126 282.846C127.204 282.91 127.263 282.994 127.297 283.089C127.331 283.184 127.339 283.286 127.321 283.385C127.308 283.544 127.256 283.697 127.168 283.83C127.079 283.963 126.959 284.071 126.817 284.144C126.652 284.234 126.467 284.283 126.279 284.285ZM124.292 283.314C125.396 283.879 126.279 284.082 126.702 283.87C126.795 283.819 126.872 283.745 126.928 283.656C126.984 283.566 127.016 283.464 127.02 283.358C127.02 283.217 127.02 283.155 126.941 283.12C126.57 282.819 125.245 283.049 124.274 283.314H124.292Z" fill="#263238"/>
<path d="M123.85 283.464C123.803 283.463 123.759 283.444 123.726 283.411C123.713 283.387 123.706 283.359 123.706 283.332C123.706 283.304 123.713 283.277 123.726 283.252C123.726 283.173 124.3 281.256 125.201 280.824C125.316 280.771 125.441 280.744 125.567 280.744C125.694 280.744 125.819 280.771 125.934 280.824C126.058 280.863 126.165 280.942 126.239 281.05C126.312 281.157 126.348 281.286 126.34 281.415C126.278 282.21 124.662 283.305 123.92 283.491L123.85 283.464ZM125.563 281.053C125.477 281.056 125.393 281.077 125.316 281.115C124.768 281.38 124.318 282.413 124.097 283.04C124.874 282.713 125.943 281.848 125.978 281.362C125.978 281.283 125.978 281.186 125.775 281.097C125.709 281.062 125.637 281.038 125.563 281.027V281.053Z" fill="#263238"/>
<path d="M138.88 288.1C137.882 288.1 136.495 286.82 135.736 286.034C135.716 286.007 135.706 285.974 135.706 285.941C135.706 285.908 135.716 285.875 135.736 285.848C135.753 285.82 135.778 285.797 135.808 285.781C135.837 285.766 135.87 285.758 135.904 285.76C136.257 285.76 139.321 286.219 139.754 287.085C139.8 287.162 139.824 287.251 139.824 287.341C139.824 287.431 139.8 287.519 139.754 287.597C139.689 287.732 139.591 287.848 139.469 287.934C139.347 288.021 139.205 288.075 139.056 288.091L138.88 288.1ZM136.319 286.157C137.431 287.235 138.412 287.835 138.968 287.765C139.065 287.752 139.158 287.715 139.238 287.658C139.318 287.601 139.383 287.526 139.427 287.438C139.447 287.408 139.457 287.372 139.457 287.336C139.457 287.3 139.447 287.265 139.427 287.235C139.198 286.758 137.564 286.352 136.319 286.157Z" fill="#263238"/>
<path d="M136.416 286.113C136.218 286.119 136.02 286.104 135.824 286.069C135.797 286.065 135.771 286.054 135.75 286.037C135.728 286.02 135.711 285.998 135.701 285.972C135.688 285.946 135.681 285.917 135.681 285.888C135.681 285.859 135.688 285.83 135.701 285.804C135.754 285.742 136.946 284.303 138.076 284.206C138.396 284.181 138.713 284.282 138.959 284.488C139.304 284.789 139.286 285.054 139.198 285.221C138.977 285.822 137.449 286.113 136.416 286.113ZM136.186 285.787C137.175 285.84 138.756 285.513 138.959 285.08C138.959 285.08 139.03 284.939 138.8 284.745C138.709 284.665 138.602 284.605 138.487 284.569C138.371 284.532 138.25 284.52 138.129 284.533C137.368 284.745 136.69 285.186 136.186 285.795V285.787Z" fill="#263238"/>
<path d="M124.088 282.51L116.599 280.391C116.47 280.352 116.331 280.362 116.209 280.419C116.087 280.476 115.99 280.576 115.937 280.7L113.411 286.378C113.352 286.524 113.324 286.68 113.33 286.837C113.335 286.994 113.374 287.148 113.443 287.289C113.512 287.43 113.611 287.555 113.731 287.655C113.852 287.755 113.993 287.829 114.144 287.871C116.794 288.559 118.065 288.754 121.359 289.699C123.39 290.264 126.287 291.315 129.086 292.109C131.885 292.904 132.821 290.175 131.735 289.593C126.825 286.996 126.437 285.177 125.094 283.234C124.854 282.883 124.498 282.626 124.088 282.51Z" fill="#4CAF4F"/>
<path d="M135.939 285.001L129.545 280.585C129.437 280.506 129.303 280.47 129.17 280.483C129.036 280.496 128.912 280.558 128.821 280.656L124.583 285.213C124.479 285.33 124.402 285.469 124.357 285.619C124.311 285.768 124.298 285.926 124.318 286.082C124.338 286.237 124.391 286.386 124.473 286.52C124.555 286.653 124.665 286.767 124.794 286.855C127.046 288.365 128.212 288.974 131.029 290.926C132.795 292.127 136.213 294.794 138.597 296.454C140.981 298.114 142.756 295.836 141.908 294.935C138.111 290.882 137.281 288.339 136.654 286.034C136.545 285.616 136.292 285.25 135.939 285.001Z" fill="#4CAF4F"/>
<path d="M130.755 276.788L119.231 271.057L120.424 267.931L132.734 273.971L130.755 276.788Z" fill="#4CAF4F"/>
<path d="M115.769 168.771L114.798 171.315C114.701 171.509 114.93 171.712 115.257 171.712H144.469C144.725 171.712 144.937 171.588 144.955 171.43L145.202 168.904C145.202 168.736 144.999 168.586 144.725 168.586H116.228C116.143 168.578 116.056 168.591 115.976 168.623C115.896 168.655 115.825 168.706 115.769 168.771Z" fill="#4CAF4F"/>
<path opacity="0.4" d="M115.769 168.771L114.798 171.315C114.701 171.509 114.93 171.712 115.257 171.712H144.469C144.725 171.712 144.937 171.588 144.955 171.43L145.202 168.904C145.202 168.736 144.999 168.586 144.725 168.586H116.228C116.143 168.578 116.056 168.591 115.976 168.623C115.896 168.655 115.825 168.706 115.769 168.771Z" fill="white"/>
<path d="M120.371 171.959H119.602C119.452 171.959 119.337 171.88 119.346 171.783L119.708 168.507C119.708 168.418 119.85 168.339 120 168.339H120.768C120.918 168.339 121.033 168.418 121.024 168.507L120.662 171.783C120.653 171.88 120.521 171.959 120.371 171.959Z" fill="#4CAF4F"/>
<path d="M138.385 171.959H137.626C137.476 171.959 137.361 171.88 137.37 171.783L137.723 168.507C137.723 168.418 137.873 168.339 138.023 168.339H138.783C138.933 168.339 139.056 168.418 139.039 168.507L138.685 171.783C138.641 171.88 138.544 171.959 138.385 171.959Z" fill="#4CAF4F"/>
<g style="mix-blend-mode:multiply">
<path d="M119.699 321.507C132.765 321.507 143.357 320.74 143.357 319.793C143.357 318.847 132.765 318.08 119.699 318.08C106.634 318.08 96.042 318.847 96.042 319.793C96.042 320.74 106.634 321.507 119.699 321.507Z" fill="#F5F5F5"/>
</g>
<path d="M134.111 317.374C129.925 316.155 125.28 314.592 122.472 312.958C122.393 312.905 122.304 312.879 122.225 312.835V293.884H130.693C131.336 293.846 131.94 293.564 132.382 293.095C132.824 292.627 133.07 292.007 133.07 291.363C133.07 290.719 132.824 290.099 132.382 289.631C131.94 289.162 131.336 288.88 130.693 288.842H122.269V202.46H117.183V288.842H108.767C108.423 288.822 108.079 288.872 107.756 288.989C107.432 289.107 107.136 289.289 106.885 289.525C106.635 289.761 106.435 290.046 106.299 290.362C106.162 290.678 106.092 291.019 106.092 291.363C106.092 291.707 106.162 292.048 106.299 292.364C106.435 292.68 106.635 292.965 106.885 293.201C107.136 293.437 107.432 293.619 107.756 293.737C108.079 293.854 108.423 293.905 108.767 293.884H117.183V312.808C117.103 312.808 117.024 312.879 116.944 312.932C114.092 314.592 109.482 316.155 105.296 317.347C105.014 317.433 104.771 317.617 104.612 317.866C104.453 318.115 104.389 318.412 104.43 318.705C104.472 318.997 104.617 319.265 104.839 319.46C105.061 319.655 105.345 319.764 105.641 319.767H133.766C134.049 319.748 134.316 319.632 134.523 319.44C134.731 319.247 134.866 318.99 134.906 318.71C134.946 318.43 134.889 318.144 134.745 317.901C134.6 317.658 134.376 317.472 134.111 317.374Z" fill="#E0E0E0"/>
<path d="M135.409 193.665H104.007C101.481 193.665 99.4326 195.713 99.4326 198.239V207.573C99.4326 210.1 101.481 212.148 104.007 212.148H135.409C137.935 212.148 139.983 210.1 139.983 207.573V198.239C139.983 195.713 137.935 193.665 135.409 193.665Z" fill="#4CAF4F"/>
<path d="M103.716 212.157V213.764C103.716 215.088 105.155 216.166 106.921 216.166H132.53C134.296 216.166 135.736 215.088 135.736 213.764V212.157H103.716Z" fill="#4CAF4F"/>
<path opacity="0.3" d="M103.716 212.157V213.764C103.716 215.088 105.155 216.166 106.921 216.166H132.53C134.296 216.166 135.736 215.088 135.736 213.764V212.157H103.716Z" fill="white"/>
</svg>
