<svg width="25" height="25" viewBox="0 0 25 25" fill="none" xmlns="http://www.w3.org/2000/svg">
<g id="Social Icons">
<path id="BG" fill-rule="evenodd" clip-rule="evenodd" d="M0 12.5C0 5.59644 5.59644 0 12.5 0C19.4036 0 25 5.59644 25 12.5C25 19.4036 19.4036 25 12.5 25C5.59644 25 0 19.4036 0 12.5Z" fill="#EA4C89"/>
<path id="Path" fill-rule="evenodd" clip-rule="evenodd" d="M19.1663 12.4908C19.1663 12.9417 19.1204 13.3919 19.0303 13.8307C18.9424 14.2592 18.8122 14.6798 18.6416 15.0819C18.4749 15.4769 18.2682 15.8575 18.0267 16.2125C17.7887 16.5652 17.5146 16.8961 17.2135 17.1978C16.9117 17.4982 16.5796 17.7715 16.2271 18.0105C15.871 18.2503 15.4898 18.4568 15.0946 18.6242C14.6919 18.7939 14.2703 18.9239 13.8422 19.0117C13.4027 19.102 12.9509 19.1482 12.4994 19.1482C12.0475 19.1482 11.5957 19.102 11.1569 19.0117C10.7281 18.9239 10.3066 18.7939 9.9042 18.6242C9.509 18.4568 9.12745 18.2503 8.77132 18.0105C8.41877 17.7715 8.08672 17.4982 7.7856 17.1978C7.48416 16.8961 7.21004 16.5652 6.97175 16.2125C6.7315 15.8575 6.52445 15.4769 6.35713 15.0819C6.18653 14.6798 6.05601 14.2592 5.96778 13.8307C5.87859 13.3919 5.83301 12.9417 5.83301 12.4908C5.83301 12.0396 5.87857 11.5884 5.96781 11.1505C6.05603 10.7221 6.18656 10.3008 6.35716 9.89934C6.52447 9.50406 6.73153 9.12309 6.97178 8.7681C7.21007 8.41509 7.48418 8.0848 7.78562 7.78281C8.08675 7.48243 8.41879 7.20972 8.77135 6.97112C9.12748 6.73023 9.50903 6.52384 9.90422 6.35609C10.3066 6.18605 10.7281 6.05571 11.1569 5.96861C11.5957 5.87889 12.0476 5.83337 12.4994 5.83337C12.9509 5.83337 13.4028 5.87889 13.8422 5.96861C14.2703 6.05574 14.6919 6.18607 15.0946 6.35609C15.4898 6.52382 15.871 6.73023 16.2271 6.97112C16.5797 7.20972 16.9117 7.48243 17.2135 7.78281C17.5146 8.0848 17.7887 8.41509 18.0267 8.7681C18.2682 9.12309 18.4749 9.50409 18.6416 9.89934C18.8122 10.3008 18.9424 10.7221 19.0303 11.1505C19.1204 11.5884 19.1663 12.0396 19.1663 12.4908ZM10.0702 7.34851C8.48252 8.09717 7.29756 9.55801 6.92807 11.3186C7.07817 11.3199 9.45069 11.3498 12.1842 10.6246C11.1988 8.87633 10.146 7.44964 10.0702 7.34851ZM12.6559 11.5C9.72446 12.3764 6.91148 12.3133 6.81057 12.3094C6.80893 12.3705 6.806 12.4297 6.806 12.4908C6.806 13.9513 7.35779 15.2828 8.26474 16.2895C8.26278 16.2866 9.82083 13.5265 12.8932 12.5344C12.9675 12.5097 13.043 12.4875 13.1179 12.4661C12.975 12.143 12.819 11.8192 12.6559 11.5ZM16.2593 8.22394C15.257 7.34135 13.9408 6.806 12.4994 6.806C12.0368 6.806 11.5878 6.86192 11.1578 6.96528C11.2431 7.07972 12.3125 8.49635 13.2862 10.2816C15.4344 9.4774 16.2453 8.24473 16.2593 8.22394ZM13.5059 13.4081C13.4933 13.4123 13.4806 13.416 13.4682 13.4205C10.109 14.5899 9.01204 16.9465 9.00017 16.9722C9.96671 17.7228 11.179 18.1756 12.4994 18.1756C13.2878 18.1756 14.0388 18.0153 14.7221 17.725C14.6378 17.2283 14.3071 15.4873 13.5059 13.4081ZM15.6808 17.2056C16.9592 16.3442 17.8671 14.9763 18.1204 13.3919C18.0032 13.3541 16.4103 12.8506 14.5727 13.1448C15.3195 15.1941 15.6229 16.863 15.6808 17.2056ZM13.7244 11.1287C13.8565 11.3999 13.9845 11.6758 14.1026 11.9531C14.1447 12.0526 14.1857 12.1501 14.2257 12.2476C16.1815 12.0019 18.1084 12.4154 18.1908 12.4322C18.1777 11.0845 17.695 9.84763 16.8961 8.87928C16.8854 8.89452 15.9722 10.212 13.7244 11.1287Z" fill="white"/>
</g>
</svg>
