<svg width="48" height="48" viewBox="0 0 48 48" fill="none" xmlns="http://www.w3.org/2000/svg">
<g id="Icon">
<g id="Group 2">
<path id="Vector" d="M28.9746 22.2292H29.0604H28.9746ZM28.9746 22.2292L28.9748 14.4548L26.9825 18.3936L26.982 22.2291V22.2292C26.982 22.2738 26.9842 22.318 26.9885 22.3615L26.982 22.3581V23.472V23.4748C26.982 23.4749 26.982 23.4749 26.982 23.475C26.982 23.5534 26.9704 23.6293 26.948 23.7011L26.8247 23.7769C26.8717 23.6848 26.8966 23.582 26.8966 23.475V18.3936C26.8966 18.1858 27.0649 18.0174 27.2729 18.0174C27.4807 18.0174 27.6491 18.1856 27.6491 18.3936M28.9746 22.2292C28.9746 22.4068 28.906 22.5736 28.7807 22.6989C28.6558 22.8236 28.4895 22.8926 28.3116 22.8926C27.9462 22.8926 27.6487 22.595 27.6487 22.2292L27.6491 18.3936M27.6491 18.3936H27.5633H27.6491ZM24.6241 25.0998L24.6241 25.0998L24.6241 25.0998ZM24.6241 25.0998L24.6241 25.0999L24.6241 25.0998ZM26.2147 24.8902C26.2182 24.8618 26.2212 24.8334 26.2235 24.8048C26.2268 24.8048 26.23 24.8049 26.2332 24.8049C26.2333 24.8049 26.2334 24.8049 26.2334 24.8049C26.5881 24.8049 26.9234 24.6653 27.1735 24.4161L27.1739 24.4157C27.174 24.4156 27.174 24.4156 27.174 24.4156C27.174 24.4156 27.174 24.4156 27.1741 24.4155L26.2147 24.8902ZM26.2147 24.8902C26.2209 24.8903 26.227 24.8903 26.2332 24.8903C26.6116 24.8903 26.9671 24.7431 27.2343 24.4759C27.2861 24.4242 27.3333 24.3692 27.3759 24.3114L26.2147 24.8902ZM24.9466 23.8125L24.8988 24.6302L24.8962 24.6742C24.885 24.8658 24.8104 25.0334 24.6844 25.1596L24.9466 23.8125ZM24.9466 23.8125C24.9184 23.7048 24.9033 23.5918 24.9033 23.4752V23.4168V23.4168L24.9036 18.3939M24.9466 23.8125L25.4844 18.3939M24.9036 18.3939V18.3938L25.194 18.3938L25.4844 18.3939M24.9036 18.3939C24.9036 18.5543 25.0338 18.6843 25.194 18.6843C25.3544 18.6843 25.4844 18.554 25.4844 18.3939M24.9036 18.3939H25.194H25.4844M25.4844 18.3939V23.4168V23.4752V23.9119V18.3939ZM25.0959 25.5707L25.0957 25.5709L25.366 25.3608C25.3404 25.3489 25.3151 25.3365 25.2903 25.3237C25.236 25.4125 25.171 25.4955 25.0959 25.5707ZM25.4821 24.7085C25.4782 24.7762 25.4692 24.8431 25.4553 24.9087L25.5617 24.7131L25.7815 24.726C25.7185 24.7032 25.6576 24.6757 25.5994 24.6441C25.5598 24.6225 25.5214 24.5991 25.4844 24.5738V24.6302C25.4844 24.6564 25.4836 24.6825 25.4821 24.7085Z" fill="#4CAF4F" stroke="#4CAF4F" stroke-width="1.33333"/>
<path id="Vector_2" d="M15.7376 30.1468L20.0949 27.5328C20.2471 27.4414 20.3548 27.2965 20.3977 27.1252M15.7376 30.1468L15.7817 30.2203L15.8807 30.3848L15.8807 30.3848L15.9314 30.4692L15.9317 30.4697L16.0811 30.7181M15.7376 30.1468C15.5597 30.2537 15.5017 30.4849 15.6087 30.663C15.7154 30.8413 15.9463 30.8993 16.1249 30.7918L21.9962 27.426C21.996 27.4259 21.9957 27.4259 21.9955 27.4258C21.9955 27.4258 21.9955 27.4258 21.9954 27.4258C21.9327 27.4102 21.8711 27.4028 21.8114 27.4028C21.7009 27.4028 21.5847 27.431 21.4694 27.4912L21.4297 27.5119L21.4296 27.5119L20.7124 27.8863C20.6437 27.9575 20.5668 28.0213 20.4827 28.0764V28.1776L20.4823 28.1768L20.482 28.1765L20.4386 28.1041C20.4385 28.1041 20.4383 28.1042 20.4382 28.1043L20.438 28.1044L20.4379 28.1045L16.0811 30.7181M15.7376 30.1468L15.7817 30.2203L15.9311 30.4694L15.9314 30.4699L15.9986 30.5818L15.9986 30.5819L16.0805 30.7185L16.0807 30.7184L16.0808 30.7183L16.0811 30.7181M16.0811 30.7181C16.2176 30.636 16.263 30.4586 16.1808 30.3206C16.1807 30.3206 16.1807 30.3206 16.1807 30.3205C16.1807 30.3205 16.1806 30.3205 16.1806 30.3204C16.1806 30.3203 16.1805 30.3202 16.1804 30.3201C16.1804 30.32 16.1803 30.3199 16.1802 30.3197C16.0975 30.1826 15.919 30.1382 15.7819 30.2202L20.139 27.6062L20.139 27.6062L20.1391 27.6062L20.2974 27.5112H20.2977L20.5158 27.3803L20.5052 27.1522L20.3977 27.1252M20.3977 27.1252L20.5052 27.1521L19.3754 26.4179C19.6895 26.2292 20.1037 26.3037 20.2973 26.5838M20.3977 27.1252C20.4448 26.9372 20.409 26.745 20.2973 26.5838M20.2973 26.5838L20.2975 26.5837L20.2973 26.5838ZM9.36891 30.8275C9.3738 30.8205 9.37855 30.8137 9.38317 30.8071L9.50738 30.6008L9.51082 30.5951L9.55509 30.5216C9.75766 30.1852 10.2838 29.2387 11.8254 26.4615M9.36891 30.8275L11.8254 26.4615M9.36891 30.8275C9.36901 30.8274 9.3691 30.8272 9.3692 30.8271L9.37057 30.828L9.36891 30.8275ZM9.36891 30.8275L9.29889 30.7784L9.36891 30.8275ZM11.8254 26.4615C11.799 26.4516 11.7726 26.4402 11.7465 26.4271C11.7611 26.4007 11.7748 26.3761 11.7875 26.3532C11.8388 26.2609 11.8735 26.1984 11.8874 26.1733L11.9632 26.2132C11.9164 26.2976 11.8704 26.3803 11.8254 26.4615ZM9.36992 30.8291L9.36848 30.8281C9.36858 30.828 9.36868 30.8278 9.36878 30.8277L9.36992 30.8291ZM11.8943 26.1609L11.3111 25.8378L11.9709 26.1992L11.8943 26.1609ZM12.0745 25.9118C12.0993 25.9257 12.1238 25.9411 12.1479 25.9582L13.0122 25.504C12.6612 25.5038 12.3185 25.6486 12.0745 25.9118ZM17.9209 33.7852C17.9208 33.7852 17.9208 33.7853 17.9207 33.7853L17.9209 33.7852Z" fill="#4CAF4F" stroke="#4CAF4F" stroke-width="1.33333"/>
<path id="Vector_3" d="M32.5252 30.2199C32.5252 30.2198 32.5251 30.2198 32.525 30.2198L32.5252 30.2199Z" fill="#4CAF4F" stroke="#4CAF4F" stroke-width="1.33333"/>
</g>
</g>
</svg>
