<svg width="25" height="25" viewBox="0 0 25 25" fill="none" xmlns="http://www.w3.org/2000/svg">
<g id="Social Icons">
<path id="BG" fill-rule="evenodd" clip-rule="evenodd" d="M0 12.5C0 5.59644 5.59644 0 12.5 0C19.4036 0 25 5.59644 25 12.5C25 19.4036 19.4036 25 12.5 25C5.59644 25 0 19.4036 0 12.5Z" fill="#FF0000"/>
<path id="Path" fill-rule="evenodd" clip-rule="evenodd" d="M17.7088 8.20286C18.2826 8.36029 18.7344 8.82415 18.8877 9.41322C19.1663 10.4808 19.1663 12.7084 19.1663 12.7084C19.1663 12.7084 19.1663 14.9359 18.8877 16.0036C18.7344 16.5927 18.2826 17.0565 17.7088 17.214C16.6691 17.5001 12.4997 17.5001 12.4997 17.5001C12.4997 17.5001 8.3302 17.5001 7.29043 17.214C6.71672 17.0565 6.2649 16.5927 6.11157 16.0036C5.83301 14.9359 5.83301 12.7084 5.83301 12.7084C5.83301 12.7084 5.83301 10.4808 6.11157 9.41322C6.2649 8.82415 6.71672 8.36029 7.29043 8.20286C8.3302 7.91675 12.4997 7.91675 12.4997 7.91675C12.4997 7.91675 16.6691 7.91675 17.7088 8.20286ZM11.2497 10.8334V15L14.583 12.9168L11.2497 10.8334Z" fill="white"/>
</g>
</svg>
